<mxfile host="app.diagrams.net" modified="2023-05-19T10:22:01.578Z" agent="Mozilla/5.0 (Macintosh; Intel Mac OS X 10_15_7) AppleWebKit/537.36 (KHTML, like Gecko) Chrome/109.0.0.0 Safari/537.36" version="21.3.2" etag="EBj1caJ8x-rK1pO-mJ3K" type="github">
  <diagram name="Страница 1" id="h2QKOAGQBtW21lf3FHz0">
    <mxGraphModel>
      <root>
        <mxCell id="0" />
        <mxCell id="1" parent="0" />
      </root>
    </mxGraphModel>
  </diagram>
</mxfile>
